<svg width="150" height="17" viewBox="0 0 150 17" fill="none" xmlns="http://www.w3.org/2000/svg">
<path d="M11.627 15.8643H8.22826L4.53315 9.38902L3.26851 10.3786V15.8643H0.284752V0.504349H3.26851V7.53895C3.46611 7.23778 3.66371 6.9366 3.86131 6.63542C4.05891 6.33425 4.25651 6.03307 4.45411 5.73189L8.26779 0.504349H11.5875L6.66722 7.3023L11.627 15.8643ZM25.8252 8.16281C25.8252 9.75473 25.5814 11.1458 25.0941 12.3362C24.6198 13.5122 23.8887 14.4299 22.9007 15.0898C21.9127 15.7495 20.6481 16.0794 19.1068 16.0794C17.5786 16.0794 16.3139 15.7495 15.3129 15.0898C14.3249 14.4299 13.5871 13.5049 13.0997 12.3147C12.6255 11.1243 12.3884 9.73322 12.3884 8.14129C12.3884 6.54936 12.6255 5.1653 13.0997 3.98938C13.5871 2.81317 14.3249 1.90267 15.3129 1.25729C16.3139 0.597386 17.5853 0.267715 19.1265 0.267715C20.6545 0.267715 21.9127 0.597386 22.9007 1.25729C23.8887 1.90267 24.6198 2.82043 25.0941 4.01088C25.5814 5.18681 25.8252 6.57088 25.8252 8.16281ZM15.5302 8.16281C15.5302 9.76898 15.8133 11.0382 16.3799 11.9705C16.9463 12.8883 17.8552 13.3473 19.1068 13.3473C20.3845 13.3473 21.3001 12.8883 21.8534 11.9705C22.4067 11.0382 22.6833 9.76898 22.6833 8.16281C22.6833 6.5421 22.4067 5.27287 21.8534 4.3551C21.3001 3.43704 20.3912 2.97829 19.1265 2.97829C17.8619 2.97829 16.9463 3.43704 16.3799 4.3551C15.8133 5.27287 15.5302 6.5421 15.5302 8.16281ZM34.7151 15.8643L31.3164 3.81727H31.2374C31.2504 4.10392 31.2702 4.53417 31.2966 5.10802C31.3228 5.6816 31.3492 6.2982 31.3757 6.9581C31.4019 7.60348 31.4152 8.19131 31.4152 8.72214V15.8643H28.7476V0.504349H32.8182L36.1576 12.2502H36.2169L39.7539 0.504349H43.8245V15.8643H41.0383V8.59305C41.0383 8.10525 41.045 7.54593 41.0581 6.91508C41.0845 6.28395 41.1043 5.68887 41.1174 5.12954C41.1438 4.55569 41.1635 4.12544 41.1766 3.83879H41.0976L37.4618 15.8643H34.7151ZM51.8937 0.504349C53.7117 0.504349 55.0356 0.934598 55.8655 1.7951C56.7085 2.64107 57.1301 3.81002 57.1301 5.30165C57.1301 6.19065 56.9587 7.02963 56.6164 7.81861C56.2738 8.59306 55.7007 9.21692 54.8972 9.69019C54.1068 10.1635 53.0265 10.4001 51.6566 10.4001H50.3722V15.8643H47.3884V0.504349H51.8937ZM51.7356 3.1719H50.3722V7.73256H51.3602C52.2032 7.73256 52.8684 7.55318 53.356 7.19474C53.8564 6.82176 54.1068 6.22667 54.1068 5.4092C54.1068 3.91757 53.3164 3.1719 51.7356 3.1719ZM67.9175 15.8643H59.7962V0.504349H67.9175V3.1719H62.7799V6.54936H67.5619V9.21692H62.7799V13.1752H67.9175V15.8643ZM76.2873 15.8643H73.3035V3.21492H69.4701V0.504349H80.1207V3.21492H76.2873V15.8643ZM90.4177 15.8643H82.2964V0.504349H90.4177V3.1719H85.2802V6.54936H90.0621V9.21692H85.2802V13.1752H90.4177V15.8643ZM98.7085 7.23778H104.301V15.1974C103.563 15.4698 102.792 15.6849 101.989 15.8428C101.198 16.0004 100.296 16.0794 99.2815 16.0794C97.1736 16.0794 95.5533 15.4053 94.4206 14.0572C93.2876 12.7089 92.7212 10.7443 92.7212 8.16281C92.7212 6.55635 93.0043 5.1653 93.5709 3.98938C94.1503 2.81317 94.9869 1.90267 96.0804 1.25729C97.1736 0.611914 98.5109 0.289218 100.092 0.289218C100.843 0.289218 101.58 0.375272 102.305 0.547372C103.029 0.719472 103.688 0.948843 104.281 1.23577L103.293 3.83879C102.858 3.59489 102.364 3.39401 101.811 3.23644C101.258 3.07859 100.678 2.9998 100.072 2.9998C99.2025 2.9998 98.4449 3.21493 97.7995 3.64518C97.1672 4.07543 96.6732 4.68476 96.3175 5.47374C95.9749 6.24819 95.8038 7.16597 95.8038 8.22735C95.8038 9.23118 95.9287 10.1204 96.1792 10.8949C96.4294 11.6693 96.8246 12.2787 97.3648 12.7235C97.9047 13.1537 98.6097 13.3688 99.4791 13.3688C99.9005 13.3688 100.256 13.3473 100.546 13.3043C100.849 13.2613 101.126 13.211 101.376 13.1537V9.94835H98.7085V7.23778ZM111.762 0.504349C113.686 0.504349 115.102 0.884309 116.011 1.64451C116.933 2.40443 117.394 3.55912 117.394 5.10802C117.394 5.81067 117.269 6.42727 117.019 6.9581C116.781 7.4744 116.459 7.9189 116.05 8.29188C115.655 8.65032 115.227 8.94425 114.766 9.1739L118.915 15.8643H115.596L112.237 9.96986H110.636V15.8643H107.652V0.504349H111.762ZM111.545 3.1719H110.636V7.32382H111.604C112.592 7.32382 113.297 7.14446 113.719 6.78601C114.153 6.42728 114.371 5.89673 114.371 5.19408C114.371 4.46266 114.14 3.94636 113.679 3.64518C113.231 3.32948 112.52 3.1719 111.545 3.1719ZM129.332 15.8643L128.305 12.2072H123.167L122.139 15.8643H118.919L123.898 0.439806H127.554L132.553 15.8643H129.332ZM126.566 5.90399C126.5 5.66008 126.414 5.35165 126.309 4.97895C126.204 4.60598 126.098 4.22602 125.993 3.83879C125.887 3.45157 125.802 3.11434 125.736 2.8277C125.67 3.11434 125.578 3.47308 125.459 3.90333C125.354 4.31906 125.248 4.7208 125.143 5.10802C125.051 5.48072 124.978 5.74613 124.926 5.90399L123.918 9.47508H127.593L126.566 5.90399ZM140.308 15.8643L136.909 3.81727H136.83C136.843 4.10392 136.863 4.53417 136.889 5.10802C136.915 5.6816 136.942 6.2982 136.968 6.9581C136.994 7.60348 137.008 8.19131 137.008 8.72214V15.8643H134.34V0.504349H138.411L141.75 12.2502H141.809L145.346 0.504349H149.417V15.8643H146.631V8.59305C146.631 8.10525 146.637 7.54593 146.651 6.91508C146.677 6.28395 146.697 5.68887 146.71 5.12954C146.736 4.55569 146.756 4.12544 146.769 3.83879H146.69L143.054 15.8643H140.308Z" fill="#FFFFEF"/>
</svg>
