<svg width="31" height="34" viewBox="0 0 31 34" fill="none" xmlns="http://www.w3.org/2000/svg">
<path d="M14.4743 24.6223C19.0028 24.6223 22.6738 20.4752 22.6738 15.3595C22.6738 10.2438 19.0028 6.0968 14.4743 6.0968C9.94588 6.0968 6.27483 10.2438 6.27483 15.3595C6.27483 20.4752 9.94588 24.6223 14.4743 24.6223Z" stroke="#FFFFEF" stroke-width="4.10845"/>
<path d="M1.35254 1.9659C3.84428 2.77468 6.16812 4.65127 7.96855 7.30851" stroke="#FFFFEF" stroke-width="4.10845"/>
<path d="M23.1136 10.3609C25.0133 8.36789 27.6358 7.08866 30.5798 6.71895" stroke="#FFFFEF" stroke-width="4.10845"/>
<path d="M6.08601 32.2131C5.32559 31.3744 4.75699 30.3966 4.41581 29.3409C4.07462 28.2852 3.96826 27.1743 4.10336 26.078C4.23845 24.9816 4.61208 23.9234 5.2009 22.9697C5.78964 22.016 6.58092 21.1874 7.52496 20.5358" stroke="#FFFFEF" stroke-width="4.10845"/>
</svg>
