<svg width="441" height="88" viewBox="0 0 441 88" fill="none" xmlns="http://www.w3.org/2000/svg">
<g filter="url(#filter0_d_68_367)">
<path d="M40.029 57.5927C50.1433 57.5927 58.3426 49.4189 58.3426 39.3361C58.3426 29.2533 50.1433 21.0797 40.029 21.0797C29.9146 21.0797 21.7153 29.2533 21.7153 39.3361C21.7153 49.4189 29.9146 57.5927 40.029 57.5927Z" stroke="white" stroke-width="4.79666"/>
<path d="M10.7214 12.9379C16.2868 14.5319 21.4771 18.2306 25.4983 23.4679" stroke="white" stroke-width="4.79666"/>
<path d="M59.3247 29.484C63.5677 25.5559 69.425 23.0346 76.0005 22.3059" stroke="white" stroke-width="4.79666"/>
<path d="M21.2937 72.5536C19.5953 70.9007 18.3254 68.9735 17.5633 66.8927C16.8013 64.8119 16.5637 62.6224 16.8655 60.4616C17.1672 58.3008 18.0017 56.2152 19.3168 54.3355C20.6318 52.4557 22.3991 50.8225 24.5076 49.5382" stroke="white" stroke-width="4.79666"/>
<path d="M123.009 56.0986H115.418L107.165 43.3361L104.341 45.2866V56.0986H97.6765V25.8249H104.341V39.6897C104.782 39.0961 105.223 38.5025 105.665 37.9089C106.106 37.3153 106.547 36.7217 106.989 36.1281L115.507 25.8249H122.921L111.932 39.2233L123.009 56.0986ZM154.721 40.9193C154.721 44.0569 154.177 46.7986 153.088 49.145C152.029 51.4627 150.396 53.2716 148.189 54.5722C145.983 55.8723 143.158 56.5226 139.716 56.5226C136.302 56.5226 133.478 55.8723 131.242 54.5722C129.035 53.2716 127.387 51.4484 126.299 49.1026C125.24 46.7563 124.71 44.0145 124.71 40.8769C124.71 37.7393 125.24 35.0114 126.299 32.6937C127.387 30.3754 129.035 28.5809 131.242 27.3089C133.478 26.0082 136.317 25.3585 139.76 25.3585C143.172 25.3585 145.983 26.0082 148.189 27.3089C150.396 28.5809 152.029 30.3897 153.088 32.7361C154.177 35.0538 154.721 37.7817 154.721 40.9193ZM131.727 40.9193C131.727 44.085 132.36 46.5867 133.625 48.4242C134.89 50.2331 136.92 51.1378 139.716 51.1378C142.569 51.1378 144.614 50.2331 145.85 48.4242C147.086 46.5867 147.704 44.085 147.704 40.9193C147.704 37.725 147.086 35.2234 145.85 33.4145C144.614 31.6051 142.584 30.7009 139.76 30.7009C136.935 30.7009 134.89 31.6051 133.625 33.4145C132.36 35.2234 131.727 37.725 131.727 40.9193ZM174.577 56.0986L166.986 32.3545H166.809C166.838 32.9194 166.883 33.7674 166.942 34.8985C167 36.029 167.059 37.2443 167.118 38.5449C167.177 39.8169 167.206 40.9755 167.206 42.0217V56.0986H161.248V25.8249H170.34L177.799 48.9754H177.931L185.831 25.8249H194.923V56.0986H188.7V41.7673C188.7 40.8059 188.715 39.7035 188.744 38.4601C188.803 37.2162 188.847 36.0433 188.876 34.9409C188.935 33.8099 188.979 32.9619 189.009 32.3969H188.832L180.711 56.0986H174.577ZM212.945 25.8249C217.006 25.8249 219.963 26.6729 221.816 28.3689C223.699 30.0362 224.641 32.3402 224.641 35.2801C224.641 37.0323 224.258 38.6859 223.493 40.2409C222.728 41.7673 221.448 42.9969 219.654 43.9297C217.888 44.8625 215.475 45.3289 212.416 45.3289H209.547V56.0986H202.883V25.8249H212.945ZM212.592 31.0825H209.547V40.0713H211.754C213.637 40.0713 215.122 39.7178 216.211 39.0113C217.329 38.2762 217.888 37.1033 217.888 35.4921C217.888 32.5522 216.123 31.0825 212.592 31.0825ZM248.735 56.0986H230.595V25.8249H248.735V31.0825H237.26V37.7393H247.94V42.9969H237.26V50.7986H248.735V56.0986ZM267.428 56.0986H260.764V31.1673H252.202V25.8249H275.99V31.1673H267.428V56.0986ZM298.989 56.0986H280.85V25.8249H298.989V31.0825H287.514V37.7393H298.194V42.9969H287.514V50.7986H298.989V56.0986ZM317.506 39.0961H329.996V54.7842C328.348 55.3211 326.627 55.7451 324.832 56.0562C323.067 56.3668 321.051 56.5226 318.786 56.5226C314.078 56.5226 310.459 55.1939 307.929 52.537C305.399 49.8796 304.134 46.0074 304.134 40.9193C304.134 37.7531 304.766 35.0114 306.031 32.6937C307.326 30.3754 309.194 28.5809 311.636 27.3089C314.078 26.0369 317.065 25.4008 320.596 25.4008C322.273 25.4008 323.92 25.5704 325.539 25.9096C327.157 26.2489 328.628 26.7009 329.952 27.2665L327.745 32.3969C326.774 31.9162 325.671 31.5202 324.435 31.2097C323.199 30.8986 321.905 30.7433 320.551 30.7433C318.61 30.7433 316.918 31.1673 315.476 32.0153C314.064 32.8633 312.96 34.0643 312.166 35.6193C311.401 37.1457 311.018 38.9546 311.018 41.0465C311.018 43.025 311.298 44.7777 311.857 46.3042C312.416 47.8306 313.299 49.0315 314.505 49.9082C315.711 50.7562 317.285 51.1802 319.227 51.1802C320.169 51.1802 320.963 51.1378 321.611 51.053C322.287 50.9682 322.905 50.8691 323.464 50.7562V44.4385H317.506V39.0961ZM346.662 25.8249C350.958 25.8249 354.121 26.5737 356.151 28.0721C358.211 29.5698 359.24 31.8457 359.24 34.8985C359.24 36.2834 358.961 37.4987 358.402 38.5449C357.872 39.5625 357.152 40.4386 356.239 41.1737C355.356 41.8802 354.4 42.4595 353.37 42.9121L362.639 56.0986H355.224L347.721 44.481H344.146V56.0986H337.482V25.8249H346.662ZM346.177 31.0825H344.146V39.2657H346.309C348.516 39.2657 350.09 38.9122 351.031 38.2057C352.002 37.4987 352.488 36.453 352.488 35.0681C352.488 33.6265 351.973 32.6089 350.943 32.0153C349.943 31.3931 348.354 31.0825 346.177 31.0825ZM385.904 56.0986L383.609 48.8906H372.134L369.839 56.0986H362.645L373.767 25.6976H381.932L393.098 56.0986H385.904ZM379.725 36.4673C379.579 35.9866 379.387 35.3787 379.152 34.6441C378.917 33.909 378.681 33.1601 378.445 32.3969C378.21 31.6337 378.019 30.969 377.872 30.4041C377.725 30.969 377.519 31.6761 377.254 32.5241C377.019 33.3435 376.783 34.1353 376.548 34.8985C376.342 35.6331 376.18 36.1562 376.062 36.4673L373.811 43.5058H382.02L379.725 36.4673ZM410.418 56.0986L402.827 32.3545H402.65C402.68 32.9194 402.724 33.7674 402.783 34.8985C402.841 36.029 402.9 37.2443 402.959 38.5449C403.018 39.8169 403.048 40.9755 403.048 42.0217V56.0986H397.089V25.8249H406.181L413.64 48.9754H413.772L421.672 25.8249H430.764V56.0986H424.541V41.7673C424.541 40.8059 424.555 39.7035 424.585 38.4601C424.643 37.2162 424.688 36.0433 424.717 34.9409C424.776 33.8099 424.82 32.9619 424.85 32.3969H424.673L416.553 56.0986H410.418Z" fill="white"/>
</g>
<defs>
<filter id="filter0_d_68_367" x="-9" y="-5" width="460" height="103" filterUnits="userSpaceOnUse" color-interpolation-filters="sRGB">
<feFlood flood-opacity="0" result="BackgroundImageFix"/>
<feColorMatrix in="SourceAlpha" type="matrix" values="0 0 0 0 0 0 0 0 0 0 0 0 0 0 0 0 0 0 127 0" result="hardAlpha"/>
<feOffset/>
<feGaussianBlur stdDeviation="5"/>
<feColorMatrix type="matrix" values="0 0 0 0 1 0 0 0 0 1 0 0 0 0 1 0 0 0 0.5 0"/>
<feBlend mode="normal" in2="BackgroundImageFix" result="effect1_dropShadow_68_367"/>
<feBlend mode="normal" in="SourceGraphic" in2="effect1_dropShadow_68_367" result="shape"/>
</filter>
</defs>
</svg>
